<svg xmlns="http://www.w3.org/2000/svg" version="1.1" xmlns:xlink="http://www.w3.org/1999/xlink" xmlns:svgjs="http://svgjs.dev/svgjs" width="1000" height="1012" viewBox="0 0 1000 1012"><g transform="matrix(1,0,0,1,0.8839435625787928,0.40971659919023296)"><svg viewBox="0 0 244 247" data-background-color="#282634" preserveAspectRatio="xMidYMid meet" height="1012" width="1000" xmlns="http://www.w3.org/2000/svg" xmlns:xlink="http://www.w3.org/1999/xlink"><g id="tight-bounds" transform="matrix(1,0,0,1,-0.21568222926921976,-0.09999999999999432)"><svg viewBox="0 0 244.43135999999998 247.2" height="247.2" width="244.43135999999998"><g><svg></svg></g><g><svg viewBox="0 0 244.43135999999998 247.2" height="247.2" width="244.43135999999998"><g transform="matrix(1,0,0,1,0,69.05893970195399)"><svg viewBox="0 0 244.43135999999998 109.08212059609203" height="109.08212059609203" width="244.43135999999998"><g><svg viewBox="0 0 244.43135999999998 109.08212059609203" height="109.08212059609203" width="244.43135999999998"><g><svg viewBox="0 0 244.43135999999998 109.08212059609203" height="109.08212059609203" width="244.43135999999998"><g transform="matrix(1,0,0,1,0,61.082792698546676)"><svg viewBox="0 0 244.43135999999998 47.99932789754535" height="47.99932789754535" width="244.43135999999998"><g><svg viewBox="0 0 244.43135999999998 47.99932789754535" height="47.99932789754535" width="244.43135999999998"><g><svg viewBox="0 0 244.43135999999998 47.99932789754535" height="47.99932789754535" width="244.43135999999998"><g transform="matrix(1,0,0,1,0,0)"><svg width="244.43135999999998" viewBox="0.5 -36 234.22999572753906 46" height="47.99932789754535" data-palette-color="#ff4057"><path d="M34.75-35L34.75-31.25 21.25-31.25 21.25 0 14 0 14-31.25 0.5-31.25 0.5-35 34.75-35ZM39.5-8.25L39.5-8.25Q39.5-3.5 45.25-3.5L45.25-3.5 52.25-3.5 52.25-13 45.25-13Q39.5-13 39.5-8.25ZM45.25-16.5L52.25-16.5Q52.25-20.1 50.37-21.8 48.5-23.5 45.5-23.5L45.5-23.5Q43.25-23.5 41.1-22.83 38.95-22.15 37.25-21L37.25-21 35.5-24Q36.6-24.75 37.92-25.3 39.25-25.85 40.65-26.23 42.05-26.6 43.42-26.8 44.8-27 46-27L46-27Q49.2-27 51.65-26.25 54.1-25.5 55.8-24.1 57.5-22.7 58.37-20.78 59.25-18.85 59.25-16.5L59.25-16.5 59.25 0 45.25 0Q38.45 0 35.22-2.05 32-4.1 32-8.25L32-8.25Q32-12.4 35.22-14.45 38.45-16.5 45.25-16.5L45.25-16.5ZM86.5-0.5L86.5-1 80-1Q72.84-1 69.42-3.58 66-6.15 66-11.25L66-11.25 66-26 73-26 73-11.25Q73-7.65 74.8-6.08 76.59-4.5 80-4.5L80-4.5 86.5-4.5 86.5-26 93.5-26 93.5-0.5Q93.5 1.85 92.59 3.78 91.7 5.7 89.92 7.1 88.15 8.5 85.47 9.25 82.8 10 79.25 10L79.25 10Q78.05 10 76.67 9.83 75.3 9.65 73.9 9.28 72.5 8.9 71.17 8.33 69.84 7.75 68.75 7L68.75 7 70.75 4Q72.45 5.15 74.55 5.83 76.65 6.5 78.75 6.5L78.75 6.5Q82.5 6.5 84.5 4.8 86.5 3.1 86.5-0.5L86.5-0.5ZM107.49-35L107.49 0 100.49 0 100.49-35 107.49-35ZM128.49-2.25L128.49-2.25Q130.09-2.25 131.49-2.85 132.89-3.45 133.94-4.73 134.99-6 135.62-8.05 136.24-10.1 136.24-13L136.24-13Q136.24-15.9 135.62-17.95 134.99-20 133.94-21.28 132.89-22.55 131.49-23.15 130.09-23.75 128.49-23.75L128.49-23.75Q126.89-23.75 125.49-23.15 124.09-22.55 123.04-21.28 121.99-20 121.37-17.95 120.74-15.9 120.74-13L120.74-13Q120.74-10.1 121.37-8.05 121.99-6 123.04-4.73 124.09-3.45 125.49-2.85 126.89-2.25 128.49-2.25ZM128.49-27L128.49-27Q131.84-27 134.67-26.08 137.49-25.15 139.49-23.38 141.49-21.6 142.62-18.98 143.74-16.35 143.74-13L143.74-13Q143.74-9.6 142.62-7 141.49-4.4 139.49-2.63 137.49-0.85 134.67 0.08 131.84 1 128.49 1L128.49 1Q125.09 1 122.29 0.08 119.49-0.85 117.49-2.63 115.49-4.4 114.37-7 113.24-9.6 113.24-13L113.24-13Q113.24-16.35 114.37-18.98 115.49-21.6 117.49-23.38 119.49-25.15 122.29-26.08 125.09-27 128.49-27ZM169.24-26L169.24-22.5 163.24-22.5Q159.84-22.5 158.04-20.68 156.24-18.85 156.24-15.25L156.24-15.25 156.24 0 149.24 0 149.24-15.25Q149.24-20.35 152.46-23.18 155.69-26 161.74-26L161.74-26 169.24-26ZM175.49-25L175.49-25.5Q175.49-30.4 178.54-33.2 181.59-36 187.24-36L187.24-36Q189.14-36 191.06-35.5 192.99-35 194.49-34.25L194.49-34.25 192.99-31Q192.04-31.55 190.64-32.02 189.24-32.5 187.74-32.5L187.74-32.5Q186.69-32.5 185.74-32.1 184.79-31.7 184.06-30.88 183.34-30.05 182.91-28.7 182.49-27.35 182.49-25.5L182.49-25.5 182.49-25 190.24-25 190.24-21.5 182.49-21.5 182.49 0 175.49 0 175.49-21.5 170.74-21.5 170.74-25 175.49-25ZM209.23-2.5L209.23-2.5Q211.68-2.5 213.81-3.35 215.93-4.2 217.98-5.75L217.98-5.75 219.98-2.75Q219.03-1.9 217.76-1.2 216.48-0.5 215.01-0.03 213.53 0.45 211.93 0.73 210.33 1 208.73 1L208.73 1Q205.18 1 202.26 0.08 199.33-0.85 197.28-2.63 195.23-4.4 194.11-7 192.98-9.6 192.98-13L192.98-13Q192.98-16.35 194.06-18.98 195.13-21.6 197.06-23.38 198.98-25.15 201.63-26.08 204.28-27 207.48-27L207.48-27Q210.48-27 213.13-26.1 215.78-25.2 217.73-23.48 219.68-21.75 220.83-19.3 221.98-16.85 221.98-13.75L221.98-13.75 221.98-10.25 200.63-10.25Q201.23-6.1 203.51-4.3 205.78-2.5 209.23-2.5ZM207.48-23.75L207.48-23.75Q206.03-23.75 204.78-23.2 203.53-22.65 202.61-21.45 201.68-20.25 201.11-18.35 200.53-16.45 200.48-13.75L200.48-13.75 214.48-13.75Q214.48-16.35 213.88-18.25 213.28-20.15 212.31-21.38 211.33-22.6 210.06-23.18 208.78-23.75 207.48-23.75ZM234.73-35L234.73 0 227.73 0 227.73-35 234.73-35Z" opacity="1" transform="matrix(1,0,0,1,0,0)" fill="#ff4057" class="undefined-text-0" data-fill-palette-color="primary" id="text-0"></path></svg></g></svg></g></svg></g></svg></g><g transform="matrix(1,0,0,1,90.86644467119841,0)"><svg viewBox="0 0 62.69847065760317 49.75130336580576" height="49.75130336580576" width="62.69847065760317"><g><svg xmlns="http://www.w3.org/2000/svg" xmlns:xlink="http://www.w3.org/1999/xlink" version="1.1" x="0" y="0" viewBox="2.3000001907348633 12.100000381469727 95.39999389648438 75.69999694824219" enable-background="new 0 0 100 100" xml:space="preserve" height="49.75130336580576" width="62.69847065760317" class="icon-icon-0" data-fill-palette-color="accent" id="icon-0"><path d="M84.7 25.7c-0.5-2.2-1.3-4.4-2.4-6.5 3.2 1.2 5.8 3.5 7.4 6.5H84.7zM72.2 19.2c-3.2 1.2-5.9 3.5-7.6 6.5h5C70.2 23.4 71.1 21.2 72.2 19.2zM76.1 18.3c-1.5 2.3-2.7 4.8-3.4 7.4h9c-0.7-2.6-1.8-5.1-3.3-7.4-0.4 0-0.8-0.1-1.3-0.1C76.8 18.3 76.5 18.3 76.1 18.3zM15.4 66.2V72h61.8v-5-2.9V57c2.6 0 5.2-0.4 7.7-1.2v8.4 2.9 4.5c0 1 0.3 2 1 2.7l3.9 4.8c0.3 0.4 0.5 0.8 0.5 1.3v2.2c0 2.9-2.3 5.2-5.2 5.2H7.5c-2.9 0-5.2-2.3-5.2-5.2v-2.2c0-0.5 0.2-0.9 0.5-1.3l4-4.9c0.6-0.8 1-1.7 1-2.7v-5.7-1.7V32.6c0-4.2 3.4-7.7 7.7-7.7H54c-0.8 2.5-1.2 5.1-1.2 7.7H15.4c0 0 0 0 0 0v31.6V66.2zM38 80.3c0 1.5 1.2 2.7 2.7 2.7H52c1.5 0 2.7-1.2 2.7-2.7v-0.6H38V80.3zM68.8 32.8c0-1.4 0.1-2.8 0.3-4.2h-5.7c-0.4 1.3-0.6 2.6-0.6 4 0 1.4 0.2 2.7 0.6 3.9h5.6C68.9 35.3 68.8 34 68.8 32.8zM64.6 39.5c1.6 2.9 4.2 5.2 7.3 6.5-1.1-2.1-1.8-4.2-2.4-6.5H64.6zM71.7 32.8c0 1.3 0.1 2.5 0.3 3.8h10.3c0.2-1.4 0.3-2.7 0.3-4.1 0-1.3-0.1-2.5-0.3-3.8H72.1C71.8 30 71.7 31.4 71.7 32.8zM91.7 18.1c8 8 8 21 0 28.9-6.7 6.7-17 7.8-24.8 3.2l0 0c-3.1 2.3-6.4 2.7-8.7 2.4-0.8-0.1-0.9-1.2-0.2-1.5 2.1-1 3.4-3.1 4.2-4.8l-0.2-0.2c-7.1-8-6.8-20.3 0.9-28C70.7 10.1 83.7 10.1 91.7 18.1zM89.4 20.4c-3.3-3.3-7.6-5.1-12.2-5.1-4.6 0-8.9 1.8-12.2 5.1C61.8 23.7 60 28 60 32.6c0 4.6 1.8 8.9 5.1 12.2 3.3 3.3 7.6 5.1 12.2 5.1 4.6 0 8.9-1.8 12.2-5.1 3.3-3.3 5.1-7.6 5.1-12.2C94.5 28 92.7 23.7 89.4 20.4zM75.9 46.9c0.4 0 0.9 0.1 1.3 0.1 0.3 0 0.7 0 1 0 1.5-2.3 2.7-4.8 3.4-7.4h-9.1C73.3 42.1 74.4 44.6 75.9 46.9zM85.5 32.4c0 1.4-0.1 2.8-0.3 4.1H91c0.4-1.3 0.6-2.6 0.6-3.9 0-1.4-0.2-2.7-0.6-4h-5.7C85.4 29.9 85.5 31.1 85.5 32.4zM82.1 46.1c3.3-1.2 6-3.6 7.7-6.6h-5.1C84.1 41.8 83.2 44 82.1 46.1z" fill="#e5e5e5" data-fill-palette-color="accent"></path></svg></g></svg></g><g></g></svg></g></svg></g></svg></g><path d="M0 63.059L0 1 244.431 1 244.431 63.059 240.103 63.059 240.103 5.329 4.329 5.329 4.329 63.059 0 63.059M0 184.141L0 246.2 244.431 246.2 244.431 184.141 240.103 184.141 240.103 241.871 4.329 241.871 4.329 184.141 0 184.141" fill="#ff4057" stroke="transparent" data-fill-palette-color="primary"></path></svg></g><defs></defs></svg><rect width="244.43135999999998" height="247.2" fill="none" stroke="none" visibility="hidden"></rect></g></svg></g></svg>